{
	"asset":{
		"generator":"Khronos glTF Blender I/O v4.3.47",
		"version":"2.0"
	},
	"extensionsUsed":[
		"KHR_materials_transmission",
		"KHR_materials_specular",
		"KHR_materials_sheen",
		"KHR_materials_ior"
	],
	"scene":0,
	"scenes":[
		{
			"name":"Scene",
			"nodes":[
				0,
				1,
				2
			]
		}
	],
	"nodes":[
		{
			"mesh":0,
			"name":"Canopy",
			"translation":[
				0,
				3.1500000953674316,
				0
			]
		},
		{
			"mesh":1,
			"name":"Canopy_LOD1",
			"translation":[
				0,
				3.1500000953674316,
				0
			]
		},
		{
			"mesh":2,
			"name":"Canopy_LOD2",
			"translation":[
				0,
				3.1500000953674316,
				0
			]
		}
	],
	"materials":[
		{
			"doubleSided":true,
			"extensions":{
				"KHR_materials_transmission":{
					"transmissionFactor":0.07999999821186066
				},
				"KHR_materials_specular":{
					"specularFactor":0.7599999904632568
				},
				"KHR_materials_sheen":{
					"sheenColorFactor":[
						0.949999988079071,
						0.3499999940395355,
						0.4000000059604645
					],
					"sheenRoughnessFactor":0.4000000059604645
				},
				"KHR_materials_ior":{
					"ior":1.4600000381469727
				}
			},
			"name":"NylonCanopy",
			"pbrMetallicRoughness":{
				"metallicFactor":0.019999999552965164,
				"roughnessFactor":0.41999998688697815
			}
		}
	],
	"meshes":[
		{
			"name":"CanopyMesh",
			"primitives":[
				{
					"attributes":{
						"POSITION":0,
						"NORMAL":1,
						"TEXCOORD_0":2
					},
					"indices":3,
					"material":0
				}
			]
		},
		{
			"name":"CanopyMesh.001",
			"primitives":[
				{
					"attributes":{
						"POSITION":4,
						"NORMAL":5,
						"TEXCOORD_0":6
					},
					"indices":7,
					"material":0
				}
			]
		},
		{
			"name":"CanopyMesh.002",
			"primitives":[
				{
					"attributes":{
						"POSITION":8,
						"NORMAL":9,
						"TEXCOORD_0":10
					},
					"indices":11,
					"material":0
				}
			]
		}
	],
	"accessors":[
		{
			"bufferView":0,
			"componentType":5126,
			"count":745,
			"max":[
				4.599999904632568,
				0.7794609665870667,
				1.0672260522842407
			],
			"min":[
				-4.599999904632568,
				-0.40001773834228516,
				-0.19692766666412354
			],
			"type":"VEC3"
		},
		{
			"bufferView":1,
			"componentType":5126,
			"count":745,
			"type":"VEC3"
		},
		{
			"bufferView":2,
			"componentType":5126,
			"count":745,
			"type":"VEC2"
		},
		{
			"bufferView":3,
			"componentType":5123,
			"count":3876,
			"type":"SCALAR"
		},
		{
			"bufferView":4,
			"componentType":5126,
			"count":367,
			"max":[
				4.600307464599609,
				0.7797302007675171,
				1.0673350095748901
			],
			"min":[
				-4.600378513336182,
				-0.40001773834228516,
				-0.19575247168540955
			],
			"type":"VEC3"
		},
		{
			"bufferView":5,
			"componentType":5126,
			"count":367,
			"type":"VEC3"
		},
		{
			"bufferView":6,
			"componentType":5126,
			"count":367,
			"type":"VEC2"
		},
		{
			"bufferView":7,
			"componentType":5123,
			"count":1743,
			"type":"SCALAR"
		},
		{
			"bufferView":8,
			"componentType":5126,
			"count":164,
			"max":[
				4.600985527038574,
				0.7842749953269958,
				1.0702989101409912
			],
			"min":[
				-4.600837230682373,
				-0.40168777108192444,
				-0.1903584599494934
			],
			"type":"VEC3"
		},
		{
			"bufferView":9,
			"componentType":5126,
			"count":164,
			"type":"VEC3"
		},
		{
			"bufferView":10,
			"componentType":5126,
			"count":164,
			"type":"VEC2"
		},
		{
			"bufferView":11,
			"componentType":5123,
			"count":693,
			"type":"SCALAR"
		}
	],
	"bufferViews":[
		{
			"buffer":0,
			"byteLength":8940,
			"byteOffset":0,
			"target":34962
		},
		{
			"buffer":0,
			"byteLength":8940,
			"byteOffset":8940,
			"target":34962
		},
		{
			"buffer":0,
			"byteLength":5960,
			"byteOffset":17880,
			"target":34962
		},
		{
			"buffer":0,
			"byteLength":7752,
			"byteOffset":23840,
			"target":34963
		},
		{
			"buffer":0,
			"byteLength":4404,
			"byteOffset":31592,
			"target":34962
		},
		{
			"buffer":0,
			"byteLength":4404,
			"byteOffset":35996,
			"target":34962
		},
		{
			"buffer":0,
			"byteLength":2936,
			"byteOffset":40400,
			"target":34962
		},
		{
			"buffer":0,
			"byteLength":3486,
			"byteOffset":43336,
			"target":34963
		},
		{
			"buffer":0,
			"byteLength":1968,
			"byteOffset":46824,
			"target":34962
		},
		{
			"buffer":0,
			"byteLength":1968,
			"byteOffset":48792,
			"target":34962
		},
		{
			"buffer":0,
			"byteLength":1312,
			"byteOffset":50760,
			"target":34962
		},
		{
			"buffer":0,
			"byteLength":1386,
			"byteOffset":52072,
			"target":34963
		}
	],
	"buffers":[
		{
			"byteLength":53460,
			"uri":"canopy.bin"
		}
	]
}
